<svg height="48" viewBox="0 0 48 48" width="48" xmlns="http://www.w3.org/2000/svg"><g fill="#fff" fill-rule="evenodd"><path d="m0 24c0-13.2548 10.7452-24 24-24s24 10.7452 24 24-10.7452 24-24 24-24-10.7452-24-24zm24.0012-12.8c-3.4763 0-3.9126.0152-5.2779.0773-1.3627.0624-2.2928.2782-3.1067.5947-.8419.3269-1.556.7643-2.2675 1.476-.712.7115-1.1494 1.4256-1.4774 2.2672-.3173.8142-.5333 1.7446-.5946 3.1067-.0611 1.3654-.0771 1.8019-.0771 5.2782s.0155 3.9113.0773 5.2766c.0627 1.3627.2784 2.2928.5947 3.1067.3272.8419.7645 1.556 1.4763 2.2675.7112.712 1.4253 1.1504 2.2667 1.4774.8144.3165 1.7448.5322 3.1072.5946 1.3654.0622 1.8014.0774 5.2774.0774 3.4766 0 3.9115-.0152 5.2769-.0774 1.3626-.0624 2.2938-.2781 3.1083-.5946.8416-.327 1.5546-.7654 2.2658-1.4774.712-.7115 1.1494-1.4256 1.4774-2.2672.3147-.8142.5307-1.7446.5947-3.1067.0613-1.3654.0773-1.8006.0773-5.2769s-.016-3.9125-.0773-5.2779c-.064-1.3627-.28-2.2928-.5947-3.1067-.328-.8419-.7654-1.556-1.4774-2.2675-.712-.712-1.424-1.1493-2.2666-1.476-.8161-.3165-1.7467-.5323-3.1094-.5947-1.3654-.0621-1.8-.0773-5.2774-.0773z"/><path d="m22.8529 13.5067c.3408-.0005.7211 0 1.1483 0 3.4176 0 3.8227.0123 5.1723.0736 1.248.0571 1.9254.2656 2.3766.4408.5973.232 1.0232.5093 1.4709.9573.448.448.7254.8747.9579 1.4721.1752.4506.384 1.128.4408 2.376.0613 1.3493.0747 1.7547.0747 5.1707s-.0134 3.8214-.0747 5.1707c-.0571 1.248-.2656 1.9254-.4408 2.376-.232.5974-.5099 1.0227-.9579 1.4705-.448.448-.8733.7253-1.4709.9573-.4507.176-1.1286.384-2.3766.4411-1.3493.0613-1.7547.0746-5.1723.0746-3.4179 0-3.823-.0133-5.1723-.0746-1.248-.0576-1.9254-.2662-2.3768-.4414-.5974-.232-1.0241-.5093-1.4721-.9573s-.7253-.8736-.9578-1.4712c-.1752-.4507-.384-1.128-.4408-2.376-.0614-1.3494-.0736-1.7547-.0736-5.1729s.0122-3.8214.0736-5.1707c.057-1.248.2656-1.9254.4408-2.3766.232-.5973.5098-1.024.9578-1.472s.8747-.7253 1.4721-.9579c.4512-.176 1.1288-.384 2.3768-.4413 1.1808-.0533 1.6384-.0693 4.024-.072zm7.9809 2.1253c-.848 0-1.536.6873-1.536 1.5355 0 .848.688 1.536 1.536 1.536s1.536-.688 1.536-1.536-.688-1.5355-1.536-1.5355zm-6.8326 1.7947c-3.6302 0-6.5734 2.9433-6.5734 6.5734 0 3.6302 2.9432 6.5721 6.5734 6.5721s6.5723-2.9419 6.5723-6.5721c0-3.6301-2.9421-6.5734-6.5723-6.5734z"/><path d="m24.0012 19.7334c2.3563 0 4.2667 1.9102 4.2667 4.2667 0 2.3563-1.9104 4.2667-4.2667 4.2667-2.3566 0-4.2667-1.9104-4.2667-4.2667 0-2.3565 1.9101-4.2667 4.2667-4.2667z"/></g></svg>