<svg xmlns="http://www.w3.org/2000/svg" width="165.4193mm" height="218.4663mm" viewBox="0 0 468.9052 619.2747"><defs><style>.cls-1,.cls-5{fill:#fff;}.cls-1,.cls-2{stroke:#231f20;}.cls-2{fill:none;stroke-width:0.9734px;}.cls-3{fill:#004b8d;}.cls-4{fill:#00a651;}</style></defs><title>HC_HOKEJ</title><g id="Layer_1" data-name="Layer 1"><path class="cls-1" d="M414.1882,177.5085l54.0039-46.8975-31.207-34.4932,5.748-7.8017S365.3464-2.6019,222.7253.5817C92.7712,3.4821,26.3581,85.0309,26.3581,85.0309l7.3907,6.9815L1.72,125.6833,55.1345,174.571l.8769.791a190.4627,190.4627,0,0,0-31.3149,71.1074l-.167.7461-.0039.1748-2.0493,99.1973s6.9805,31.206,22.1738,57.0761,18.4785,30.7979,18.4785,30.7979L.7131,488.6637l31.2075,34.4932-5.7485,7.8018S103.5593,621.8766,246.18,618.693c129.9541-2.9,196.3672-84.4492,196.3672-84.4492l-7.3906-6.9814,32.0283-33.6709-58.72-53.792s15.1933-22.1739,17.6572-31.6182a39.3832,39.3832,0,0,0,.41-17.6572,155.5325,155.5325,0,0,0,12.3194-17.6572c6.1591-10.2657,6.5693-25.2852,6.5693-25.2852l-1.4277-99.2246a190.1949,190.1949,0,0,0-29.8282-68.9883l-.7851-1.1221Z" transform="translate(0 0)"/></g><g id="Layer_1_kopie_2" data-name="Layer 1 kopie 2"><path class="cls-2" d="M231.7917,511.9147" transform="translate(0 0)"/><path class="cls-3" d="M291.0017,190.5778a294.1312,294.1312,0,0,0-31.5381-6.7275c-14.3916-2.001-23.29-1.4483-23.29-1.4483-39.1817,19.8154-83.1016,74.8008-96.231,141.9082-2.54-1.5049-14.0635-8.4365-22.0566-14.9316A158.8926,158.8926,0,0,1,101.88,294.2848s8.6709-27.2275,25.0352-52.62,50.9394-51.0332,50.9394-51.0332C111.9255,206.5436,54.2771,276.3493,47.8161,351.3952c0,0,3.6631,22.9551,27.2256,63.497s71.7266,66.1817,71.7266,66.1817-32.2251-34.3037-44.0064-71.7246c-8.063-25.6133-9.15-55.1231-9.15-55.1231a204.9471,204.9471,0,0,0,20.8233,11.7129c12.937,6.4307,21.831,8.5723,21.831,8.5723l.0049-.0567c2.1045,46.6143,18.3477,88.8047,43.7754,120.7051,0,0,20.6328,5.5166,35.3359,6.8916,26.5508,2.4825,37.0254.1612,37.0254.1612-.0185-.0205-.0371-.0411-.0556-.0606-32.0918-34.8633-52.1875-84.7685-52.1875-140.1924C200.1648,286.7214,237.198,221.653,291.0017,190.5778Z" transform="translate(0 0)"/><path class="cls-3" d="M392.93,271.3s-18.3008-27.3086-27.7861-34.6856-17.2-15.5468-44.41-16.8349c-40.5527-1.919-106.3623,59.9326-105.3935,130.69,1.2373,90.5537,65.3359,134.0947,95.9082,131.7441,21.8418-1.6806,42.8193-7.7353,67.8945-37.73C404.38,414.3014,403.39,402.9206,403.39,402.9206s-26.72,37.11-66.8477,28.7031c-34.7979-7.291-63.2363-42.1592-60.0742-81.1543s25.2959-71.6689,59.0215-87.4775S392.93,271.3,392.93,271.3Z" transform="translate(0 0)"/><path class="cls-3" d="M404.3972,523.5016A236.576,236.576,0,0,0,435.94,493.444L395.571,456.4928c-39.59,44.4717-96.0459,72.2832-158.707,72.2832-64.4961,0-122.4151-29.4629-162.1377-76.2295l-42.1231,36.587a233.988,233.988,0,0,0,29.63,29.8183l-6.0322,7.3545c44.8408,43.541,108.9141,70.79,180.0537,70.79,68.7022,0,130.8164-25.417,175.3809-66.377Z" transform="translate(0 0)"/><path class="cls-4" d="M420.2146,338.7956l-.9434-87.2266a191.4446,191.4446,0,0,0-370.0356.1426l-1.5108,87.7568C58.2634,244.1569,137.63,170.0817,233.9763,170.0817c91.28,0,167.32,66.4951,184.0234,154.5449l.0117.0772.003.0088Zm0,0,.0068.6552-2.21-14.747a48.4375,48.4375,0,1,0,2.3223,14.8564Z" transform="translate(0 0)"/><path class="cls-5" d="M107.3718,501.9977l8.95,5.6543-7.7271,12.2315,10.586,6.6855,7.7265-12.2305,8.95,5.6524-20.1992,31.9785-8.95-5.6543,8.6528-13.6982L104.7751,525.93l-8.6523,13.6983-8.95-5.6543Z" transform="translate(0 0)"/><path class="cls-5" d="M146.2766,525.0358l17.6831,6.6563c6.6055,2.4882,10.915,7.3535,8.625,13.4375-1.7764,4.7168-5.3037,6.9785-10.499,6.2392l-.0371.1006c2.8906,2.0156,2.0918,4.7832,2.333,9.7949l-.0059,10.999-10.333-3.8906.2754-7.1924c.2666-6.8466-.4385-8.85-4.1143-10.2314l-2.0771-.7842-5.2695,13.9971-9.9073-3.7295Zm4.37,18.4356,2.61.9833c3.1963,1.2022,7.2822,2.625,8.79-1.3818,1.2422-3.2959-1.9912-5.208-5.7734-6.6308l-2.6094-.9834Z" transform="translate(0 0)"/><path class="cls-5" d="M204.8366,541.3c12.9444,1.9492,18.5928,10.3066,16.7872,22.31-1.7911,11.8965-9.7774,18.31-22.61,16.38-12.8311-1.9326-18.5762-10.414-16.7852-22.3095C184.0339,545.6755,191.8933,539.3532,204.8366,541.3Zm-4.71,31.2929c6.3594.9581,9.7627-4.4482,10.6914-10.6093.9756-6.4844-.7344-12.3311-7.0938-13.2871-6.36-.958-9.7158,4.125-10.6914,10.6093C192.1062,565.4674,193.7683,571.6374,200.1267,572.5924Z" transform="translate(0 0)"/><path class="cls-5" d="M234.8083,545.12l13.4541-.9609,15.2305,24.6582.1143-.0069-2.0049-25.6074,9.65-.6914,2.7,37.7275-13.1123.9375-15.6963-24.79-.1143.0088,2.1856,25.7568-9.7071.6953Z" transform="translate(0 0)"/><path class="cls-5" d="M300.155,534.3337c12.5029-3.877,21.2256,1.1894,24.82,12.7832,3.5635,11.49-.8379,20.74-13.2314,24.5849-12.3946,3.8428-21.2569-1.2949-24.82-12.7832C283.3288,547.3249,287.6531,538.2116,300.155,534.3337Zm9.374,30.2265c6.1426-1.9072,6.8555-8.2539,5.01-14.206-1.9424-6.2627-6.0254-10.7832-12.169-8.878s-6.9511,7.9414-5.0087,14.2061C299.2068,561.6325,303.3864,566.4645,309.529,564.56Z" transform="translate(0 0)"/><path class="cls-5" d="M325.7273,526.2731l9.7314-5.6826L358.05,541.7848l.0987-.0566-7.3067-30.1211,9.3877-5.48,7.374,39.4912L356.3,552.2194Z" transform="translate(0 0)"/><path class="cls-3" d="M64.1452,97.1423A236.5751,236.5751,0,0,0,32.6023,127.2L72.9714,164.151c39.59-44.4716,96.0459-72.2832,158.707-72.2832,64.4961,0,122.4151,29.4629,162.1377,76.2295L435.9392,131.51a233.9421,233.9421,0,0,0-29.63-29.8183l6.0322-7.3545c-44.8408-43.5411-108.914-70.79-180.0537-70.79-68.7021,0-130.8164,25.417-175.3808,66.377Z" transform="translate(0 0)"/><path class="cls-5" d="M348.7468,356.1764a44.37,44.37,0,0,0-4.6758.12l-.1406-.28c.084-5.3994.168-10.44.168-15.64,0-2.16,0-4.28-.0274-6.44l-2.5762.4-.1679-.24.1963-4.04.1953-.28,6.9726-1.3193.168.2393c-.0566,5.4-.1406,10.8007-.1406,16.2,0,6.04.084,7.96.1963,11Z" transform="translate(0 0)"/><path class="cls-5" d="M357.23,350.776a5.2009,5.2009,0,0,0,3.1641,1.2,3.4922,3.4922,0,0,0,2.1279-.64c1.876-1.4,2.2119-4.08,2.4365-6.16a5.0179,5.0179,0,0,1-3.8926,1.88c-2.8554,0-5.7959-2.84-5.7959-9.28,0-5.2392,2.4082-9.1992,6.8887-9.1992a6.8062,6.8062,0,0,1,2.1836.3594c3.6963,1.32,5.292,6.08,5.292,12.92,0,9.92-3.3037,14.88-9.0439,14.88a11.3576,11.3576,0,0,1-3.7237-.72l-.1406-.28.1963-4.76Zm7.5322-14.08c-.3076-2.3594-1.4834-3.68-2.66-3.68-.56,0-1.6514.32-2.1553,2.2a8.2987,8.2987,0,0,0-.252,2.16c0,2.88,1.2315,4.56,2.6319,4.56,1.7637,0,2.4638-2.08,2.5478-2.68C364.9031,338.8962,364.8191,337.2165,364.7624,336.696Z" transform="translate(0 0)"/><path class="cls-5" d="M372.2107,329.4167l.1679-.32h11.8438l.14.32c-.2519.68-1.5957,4.16-1.9033,4.96-.8681,2.28-1.2607,3.3194-1.8486,4.96a5.4439,5.4439,0,0,1,3.8359,3.68,10.2388,10.2388,0,0,1,.6719,3.96c0,5.12-2.4072,9.76-8.0635,9.76a8.0569,8.0569,0,0,1-4.8437-1.3994l-.1407-.32.2247-4.8.2236-.16c1.0918,1,2.0723,1.96,3.9482,1.96a3.1044,3.1044,0,0,0,2.7715-1.3994,5.9538,5.9538,0,0,0,.8408-3c0-1.8809-.7-4.5606-3.584-4.5606a3.09,3.09,0,0,0-1.5126.4l-.2793-.44c2.1-5.72,2.3515-6.3594,3.1914-8.88l-5.712.16-.14-.24Z" transform="translate(0 0)"/><path class="cls-5" d="M402.198,329.3766c-2.1563,8.56-4.3955,17.84-5.4043,23.16-.2237,1.12-.42,2.2392-.6153,3.3594l-.1962.28c-2.212-.04-3.0518,0-5.18.12l-.168-.32c.6436-2.3593,5.124-18.5195,5.9639-21.8l-7.9805.16-.168-.24.3086-4.72.168-.28c5.7959.04,7.6719.04,13.1035-.08Z" transform="translate(0 0)"/></g><g id="Vrstva_3" data-name="Vrstva 3"><path class="cls-5" d="M162.4923,94.8753c-1.3389-3.72-3.3277-9.84-4.69-13.6235-.6123-1.7022-1.2021-3.3413-1.8779-5.021-1.7881.5722-3.5537,1.2075-5.3189,1.8428-2.4589.8847-4.3906,1.6513-7.3086,2.8437L149.9,99.2645l-.1387.4062L136.463,104.67l-.4287-.2021c-6.0279-17.3433-8.1206-23.356-8.8692-25.4365-2.2236-6.1788-4.3467-11.6817-7.0312-18.5489l.1157-.4692c1.7251-.5493,3.4272-1.1621,5.1929-1.7974,2.7739-.9985,5.2505-2.0322,8.2319-3.2475l.3882.2876,5.6953,15.8257,12.6728-4.5611-5.9023-15.6084.2022-.4287,13.4243-5.0449.4057.1377c2.7784,8.1157,5.5791,16.2949,8.4834,24.3652,2.791,7.7554,4.4649,12.21,7.377,19.7075l-.1792.4917c-5.9263,2.1328-7.9439,2.8589-13.3613,5.022Z" transform="translate(0 0)"/><path class="cls-5" d="M221.1715,75.2952c-3.772,8.71-12.2486,11.12-17.9659,11.8355-14.1606,1.7715-22.9375-5.7739-24.8417-20.9986-.6817-5.4511-.7154-11.1191,1.4946-16.122,2.26-5.1446,6.9219-10.5215,17.4258-11.8355,4.2548-.5322,10.9448-.4912,15.998,3.1983,4.0225,3.0078,7.6045,7.894,9.1348,17.9663C222.9405,62.9871,223.4732,69.9432,221.1715,75.2952ZM198.8062,48.18c-6.1831.7734-6.9052,7.4136-5.8579,15.7905.5323,4.2549,2.1372,13.8448,9.1846,12.9634,6.9805-.873,6.4394-10.0561,5.7075-15.3667C206.818,53.9305,204.5235,47.4652,198.8062,48.18Z" transform="translate(0 0)"/><path class="cls-5" d="M246.0953,60.2581c-.1748,3.3457-.2881,6.7632-.53,10.1045-.3984,7.3594-.437,7.8941-.4717,13.9365l-.4253.3052c-5.7412-.4829-7.5454-.6133-13.7119-.791l-.4389-.4351c.7324-7.3354,1.1953-11.8691,1.7177-19.0854,1.1172-15.4351,1.16-20.6714,1.1861-27.52l.43-.3721c5.7413.4829,7.4786.6089,14.0459.8154l.377.3633-1.9624,20.6128,9.35-14.1,3.6279-5.581.4873-.2334,14.7144.8637.3672.4966A226.5531,226.5531,0,0,0,259.61,58.2142l7.53,16.5981c3.3916,6.9624,3.7393,7.7266,5.5933,10.8833l-.2442.5869-15.4116-.5112-.582-.311c-1.8-4.8321-2.0806-5.5908-4.3565-11.2637Z" transform="translate(0 0)"/><path class="cls-5" d="M294.6832,72.494l-2.3223,8.9492c5.0581,1.313,9.8257,2.4121,16.5728,3.8862l.2881.49-3.14,9.43-.6846.2378c-8.8842-2.3061-10.3588-2.7578-12.3046-3.2627-7.1333-1.8515-10.8633-2.6811-17.0577-4.15l-.2065-.5381c2.13-7.4073,3.2383-11.4112,5.5273-20.23,4.0391-15.564,4.6-18.2568,5.9922-24.9556l.49-.2881,29.1826,7.5738.2568.3437L314.501,58.81l-.4736.2236-14.98-3.8882L296.91,63.3817l14.2695,3.4262.2715.5552-2.7237,8.36-.5551.2714Z" transform="translate(0 0)"/><path class="cls-5" d="M336.6012,88.4637a52.557,52.557,0,0,1-3.9449,8.2939c-5.291,8.3692-14.667,4.3951-17.25,3.28-2.03-.8765-3.9184-1.9106-5.8071-2.9448l-.2095-.5283c.9375-2.003,1.53-3.2066,2.0874-4.4986.6372-1.476,1.1866-2.9175,1.8238-4.3935l.5283-.21a10.2557,10.2557,0,0,0,1.7656.981c4.06,1.7524,6.2061-1.6993,7.4805-4.6519.6108-1.4145,9.499-23.19,11.0757-27.1792l.563-.1221,6.0278,2.6021c2.2407.8945,4.5434,1.8154,6.7842,2.7095l.3242.4321c-1.4419,3.1719-2.6636,6.001-4.0972,9.3227-2.0708,4.7974-4.08,9.6216-6.063,14.3843Z" transform="translate(0 0)"/></g></svg>