<svg height="48" viewBox="0 0 48 48" width="48" xmlns="http://www.w3.org/2000/svg"><path d="m0 24c0-13.2548 10.7452-24 24-24s24 10.7452 24 24-10.7452 24-24 24-24-10.7452-24-24zm23.2812-4.4925.0504.8305-.8394-.1017c-3.0553-.3898-5.7245-1.7118-7.9909-3.932l-1.1079-1.1016-.2854.8135c-.6044 1.8134-.2183 3.7286 1.0408 5.0166.6715.7118.5204.8135-.6379.3898-.4029-.1356-.7555-.2372-.789-.1864-.1175.1186.2853 1.6609.6043 2.271.4365.8474 1.3262 1.6779 2.2999 2.1694l.8226.3898-.9737.0169c-.9401 0-.9737.017-.8729.3729.3357 1.1016 1.6619 2.271 3.1392 2.7795l1.0409.3559-.9066.5423c-1.343.7796-2.921 1.2203-4.499 1.2542-.7555.0169-1.3766.0847-1.3766.1356 0 .1694 2.0481 1.1185 3.24 1.4914 3.5757 1.1016 7.823.6271 11.0126-1.2542 2.2663-1.3389 4.5326-3.9997 5.5902-6.5758.5708-1.3728 1.1416-3.8811 1.1416-5.0844 0-.7796.0503-.8813.9904-1.8135.554-.5423 1.0744-1.1355 1.1752-1.305.1678-.322.1511-.322-.7051-.0339-1.4269.5085-1.6284.4407-.9233-.322.5204-.5423 1.1415-1.5253 1.1415-1.8134 0-.0509-.2518.0339-.5372.1864-.3021.1695-.9736.4237-1.4773.5763l-.9065.2881-.8226-.5593c-.4532-.3051-1.0912-.644-1.4269-.7457-.8562-.2373-2.1656-.2034-2.9378.0678-2.0985.7626-3.4247 2.7286-3.2736 4.881z" fill="#fff" fill-rule="evenodd"/></svg>