<svg height="48" viewBox="0 0 48 48" width="48" xmlns="http://www.w3.org/2000/svg"><g fill="#fff" fill-rule="evenodd"><path d="m0 24c0-13.2548 10.7452-24 24-24s24 10.7452 24 24-10.7452 24-24 24-24-10.7452-24-24zm36.265-5.9268c-.2944-1.131-1.1619-2.0216-2.2634-2.3239-1.9962-.5493-10.0016-.5493-10.0016-.5493s-8.0054 0-10.0017.5493c-1.1016.3023-1.9691 1.1929-2.2635 2.3239-.5348 2.0498-.5348 6.3268-.5348 6.3268s0 4.2768.5348 6.3268c.2944 1.131 1.1619 2.0216 2.2635 2.324 1.9963.5492 10.0017.5492 10.0017.5492s8.0054 0 10.0016-.5492c1.1015-.3024 1.969-1.193 2.2634-2.324.535-2.05.535-6.3268.535-6.3268s0-4.277-.535-6.3268z"/><path d="m21.6001 28.8v-8l6.4 4.0001z"/></g></svg>